# xmcd
#
# Track frame offsets:
#	150
#	24963
#	45322
#	62624
#	82077
#	94226
#	127365
#	146019
#	171224
#	187390
#	210614
#	241426
#	269465
#	288280
#	308217
#
# Disc length: 4400 seconds
#
# Revision: 1
# Processed by: cddbd v1.4PL0 Copyright (c) Steve Scherf et al.
# Submitted via: CDmax 2.0
#
DISCID=e4112e0f
DTITLE=Supertramp - The Best of
DYEAR=1990
DGENRE=Classic Rock
TTITLE0=Scholl
TTITLE1=Goodbye Stranger
TTITLE2=The logical song
TTITLE3=Bloody well right
TTITLE4=Breakfast in America
TTITLE5=Rudy
TTITLE6=Take the long way home
TTITLE7=Crime of the century
TTITLE8=Dreamer
TTITLE9=Ain´t nobody but me
TTITLE10=Hide in your shell
TTITLE11=From now on
TTITLE12=Give a little bit
TTITLE13=It´s raining again
TTITLE14=Cannonball
EXTD=
EXTT0=
EXTT1=
EXTT2=
EXTT3=
EXTT4=
EXTT5=
EXTT6=
EXTT7=
EXTT8=
EXTT9=
EXTT10=
EXTT11=
EXTT12=
EXTT13=
EXTT14=
PLAYORDER=
